<svg xmlns="http://www.w3.org/2000/svg" version="1.1" xmlns:xlink="http://www.w3.org/1999/xlink" xmlns:svgjs="http://svgjs.dev/svgjs" width="2000" height="636" viewBox="0 0 2000 636"><g transform="matrix(1,0,0,1,-1.2121208870767077,-0.7055961835188214)"><svg viewBox="0 0 396 126" data-background-color="#010536" preserveAspectRatio="xMidYMid meet" height="636" width="2000" xmlns="http://www.w3.org/2000/svg" xmlns:xlink="http://www.w3.org/1999/xlink"><g id="tight-bounds" transform="matrix(1,0,0,1,0.24000006435881005,0.13978792314995303)"><svg viewBox="0 0 395.52 125.72042388726378" height="125.72042388726378" width="395.52"><g><svg viewBox="0 0 666.1158271821001 211.73231227586209" height="125.72042388726378" width="395.52"><g><rect width="13.816380918077796" height="153.97320827586208" x="431.6885364347586" y="28.879552000000004" fill="#fbfbf8" opacity="1" stroke-width="0" stroke="transparent" fill-opacity="1" class="rect-o-0" data-fill-palette-color="primary" rx="1%" id="o-0" data-palette-color="#fbfbf8"></rect></g><g transform="matrix(1,0,0,1,0,29.262569931034477)"><svg viewBox="0 0 395.52 153.20717241379313" height="153.20717241379313" width="395.52"><g id="textblocktransform"><svg viewBox="0 0 395.52 153.20717241379313" height="153.20717241379313" width="395.52" id="textblock"><g><svg viewBox="0 0 395.52 153.20717241379313" height="153.20717241379313" width="395.52"><g transform="matrix(1,0,0,1,0,0)"><svg width="395.52" viewBox="2.200000047683716 -33.099998474121094 87 33.69999694824219" height="153.20717241379313" data-palette-color="#fbfbf8"><g class="wordmark-text-0" data-fill-palette-color="primary" id="text-0"><path d="M18.6 0.6L18.6 0.6Q15.2 0.6 12.2-0.43 9.2-1.45 6.98-3.53 4.75-5.6 3.48-8.72 2.2-11.85 2.2-16L2.2-16Q2.2-20.1 3.5-23.28 4.8-26.45 7.03-28.63 9.25-30.8 12.2-31.95 15.15-33.1 18.4-33.1L18.4-33.1Q22-33.1 24.63-31.83 27.25-30.55 29-28.8L29-28.8 24.5-23.3Q23.3-24.35 21.98-25.03 20.65-25.7 18.7-25.7L18.7-25.7Q17.05-25.7 15.65-25.05 14.25-24.4 13.2-23.2 12.15-22 11.58-20.25 11-18.5 11-16.3L11-16.3Q11-11.7 13.05-9.25 15.1-6.8 19.5-6.8L19.5-6.8Q20.2-6.8 20.88-6.95 21.55-7.1 22-7.4L22-7.4 22-11.9 17.2-11.9 17.2-18.9 29.6-18.9 29.6-3.4Q27.85-1.75 24.95-0.58 22.05 0.6 18.6 0.6ZM57.1 0L34.1 0 34.1-4.9Q36.9-7.5 39.32-9.8 41.75-12.1 43.55-14.13 45.35-16.15 46.37-17.98 47.4-19.8 47.4-21.4L47.4-21.4Q47.4-23.55 46.32-24.58 45.25-25.6 43.5-25.6L43.5-25.6Q41.9-25.6 40.67-24.68 39.45-23.75 38.3-22.6L38.3-22.6 33.7-27.2Q34.95-28.5 36.15-29.48 37.35-30.45 38.67-31.08 40-31.7 41.47-32 42.95-32.3 44.7-32.3L44.7-32.3Q47.1-32.3 49.1-31.55 51.1-30.8 52.55-29.45 54-28.1 54.8-26.18 55.6-24.25 55.6-21.9L55.6-21.9Q55.6-20 54.77-18.03 53.95-16.05 52.65-14.1 51.35-12.15 49.72-10.3 48.1-8.45 46.5-6.8L46.5-6.8Q47.7-6.95 49.22-7.08 50.75-7.2 51.8-7.2L51.8-7.2 57.1-7.2 57.1 0ZM73 0L62.9 0 62.9-32.5 72.5-32.5Q76.2-32.5 79.27-31.6 82.35-30.7 84.55-28.75 86.75-26.8 87.97-23.75 89.2-20.7 89.2-16.4L89.2-16.4Q89.2-12.1 88-9 86.8-5.9 84.62-3.9 82.45-1.9 79.47-0.95 76.5 0 73 0L73 0ZM71.5-25.6L71.5-6.9 72-6.9Q73.75-6.9 75.3-7.33 76.85-7.75 77.97-8.8 79.1-9.85 79.75-11.7 80.4-13.55 80.4-16.4L80.4-16.4Q80.4-19.25 79.75-21.05 79.1-22.85 77.97-23.85 76.85-24.85 75.3-25.23 73.75-25.6 72-25.6L72-25.6 71.5-25.6Z" fill="#fbfbf8" data-fill-palette-color="primary"></path></g></svg></g></svg></g></svg></g></svg></g><g transform="matrix(1,0,0,1,481.673453787595,0)"><svg viewBox="0 0 184.4423733945051 211.73231227586209" height="211.73231227586209" width="184.4423733945051"><g><svg xmlns="http://www.w3.org/2000/svg" xmlns:xlink="http://www.w3.org/1999/xlink" version="1.1" x="0" y="0" viewBox="10.100000381469727 5.199999809265137 78.4000015258789 90" enable-background="new 0 0 100 100" xml:space="preserve" height="211.73231227586209" width="184.4423733945051" class="icon-icon-0" data-fill-palette-color="accent" id="icon-0"><polygon fill-rule="evenodd" clip-rule="evenodd" fill="#ffff00" points="88.5,28.2 68.4,59.9 68.5,22.3 " data-fill-palette-color="accent"></polygon><polygon fill-rule="evenodd" clip-rule="evenodd" fill="#ffff00" points="49.8,5.2 67.2,38.5 34.7,19.6 " data-fill-palette-color="accent"></polygon><polygon fill-rule="evenodd" clip-rule="evenodd" fill="#ffff00" points="67.8,38.3 67.8,22.3 60.8,24.5 " data-fill-palette-color="accent"></polygon><polygon fill-rule="evenodd" clip-rule="evenodd" fill="#ffff00" points="88.2,73.2 50.6,71.7 83.2,52.9 " data-fill-palette-color="accent"></polygon><polygon fill-rule="evenodd" clip-rule="evenodd" fill="#ffff00" points="69.1,60.3 82.8,52.3 77.4,47.4 " data-fill-palette-color="accent"></polygon><polygon fill-rule="evenodd" clip-rule="evenodd" fill="#ffff00" points="48.7,95.2 31.5,61.9 63.9,80.9 " data-fill-palette-color="accent"></polygon><polygon fill-rule="evenodd" clip-rule="evenodd" fill="#ffff00" points="50.5,72.2 64.2,80.2 65.8,73.1 " data-fill-palette-color="accent"></polygon><polygon fill-rule="evenodd" clip-rule="evenodd" fill="#ffff00" points="10.1,72 30.5,40.4 30.1,78 " data-fill-palette-color="accent"></polygon><polygon fill-rule="evenodd" clip-rule="evenodd" fill="#ffff00" points="30.9,62.1 30.8,78 37.8,75.8 " data-fill-palette-color="accent"></polygon><polygon fill-rule="evenodd" clip-rule="evenodd" fill="#ffff00" points="11,27 48.5,28.9 15.8,47.3 " data-fill-palette-color="accent"></polygon><polygon fill-rule="evenodd" clip-rule="evenodd" fill="#ffff00" points="30,40.1 16.1,47.9 21.5,52.9 " data-fill-palette-color="accent"></polygon><polygon fill-rule="evenodd" clip-rule="evenodd" fill="#ffff00" points="48.2,28.3 34.5,20.2 32.9,27.4 " data-fill-palette-color="accent"></polygon></svg></g></svg></g></svg></g><defs></defs></svg><rect width="395.52" height="125.72042388726378" fill="none" stroke="none" visibility="hidden"></rect></g></svg></g></svg>