<svg xmlns="http://www.w3.org/2000/svg" version="1.1" xmlns:xlink="http://www.w3.org/1999/xlink" xmlns:svgjs="http://svgjs.dev/svgjs" width="2000" height="2000" viewBox="0 0 2000 2000"><g transform="matrix(1,0,0,1,-0.28443113772425477,-0.28443113772459583)"><svg viewBox="0 0 334 334" data-background-color="#111111" preserveAspectRatio="xMidYMid meet" height="2000" width="2000" xmlns="http://www.w3.org/2000/svg" xmlns:xlink="http://www.w3.org/1999/xlink"><g id="tight-bounds" transform="matrix(1,0,0,1,0.04749999999998522,0.04750000000001364)"><svg viewBox="0 0 333.90454557049503 333.90454557049503" height="333.90454557049503" width="333.90454557049503"><g><svg></svg></g><g><svg viewBox="0 0 333.90454557049503 333.90454557049503" height="333.90454557049503" width="333.90454557049503"><g><path d="M0 166.952c0-92.205 74.747-166.952 166.952-166.952 92.205 0 166.952 74.747 166.953 166.952 0 92.205-74.747 166.952-166.953 166.953-92.205 0-166.952-74.747-166.952-166.953zM166.952 316.63c82.665 0 149.677-67.013 149.678-149.678 0-82.665-67.013-149.677-149.678-149.677-82.665 0-149.677 67.013-149.677 149.677 0 82.665 67.013 149.677 149.677 149.678z" data-fill-palette-color="tertiary" fill="#ff0000" stroke="transparent"></path><ellipse rx="160.27418187383762" ry="160.27418187383762" cx="166.95227278524752" cy="166.95227278524752" fill="#ff0000" stroke="transparent" stroke-width="0" fill-opacity="1" data-fill-palette-color="tertiary"></ellipse></g><g transform="matrix(1,0,0,1,88.49345104106104,71.17305217166896)"><svg viewBox="0 0 156.91764348837296 191.55844122715712" height="191.55844122715712" width="156.91764348837296"><g><svg viewBox="0 0 156.91764348837296 191.55844122715712" height="191.55844122715712" width="156.91764348837296"><g><svg viewBox="0 0 156.91764348837296 191.55844122715712" height="191.55844122715712" width="156.91764348837296"><g><svg viewBox="0 0 156.91764348837296 191.55844122715712" height="191.55844122715712" width="156.91764348837296"><g id="textblocktransform"><svg viewBox="0 0 156.91764348837296 191.55844122715712" height="191.55844122715712" width="156.91764348837296" id="textblock"><g><svg viewBox="0 0 156.91764348837296 191.55844122715712" height="191.55844122715712" width="156.91764348837296"><g transform="matrix(1,0,0,1,0,0)"><svg width="156.91764348837296" viewBox="1.850000023841858 -36.349998474121094 30.350000381469727 37.04999923706055" height="191.55844122715712" data-palette-color="#ffffff"><path d="M13.5 0.7L13.5 0.7Q6.4 0.7 3.7-2.6L3.7-2.6Q1.85-4.9 1.85-8.9L1.85-8.9Q1.85-10.75 2.25-12.95L2.25-12.95 4-22.95Q6.35-36.35 20.4-36.35L20.4-36.35Q26.2-36.35 29.2-33.88 32.2-31.4 32.2-27.1L32.2-27.1Q32.2-25.35 31.73-23.55 31.25-21.75 30.8-20.85L30.8-20.85 30.3-19.95 21.45-19.95Q22.75-21.75 22.75-24.1L22.75-24.1Q22.75-28.6 19-28.6L19-28.6Q13.95-28.6 12.95-22.75L12.95-22.75 11.25-13.15Q11-11.8 11-10.5L11-10.5Q11-7.05 15.08-7.05 19.15-7.05 20.3-11.15L20.3-11.15 16.2-11.15 17.2-16.7 30.45-16.7 29.65-12.4 29.4-10.95Q27.3 0.7 13.5 0.7Z" opacity="1" transform="matrix(1,0,0,1,0,0)" fill="#ffffff" class="wordmark-text-0" data-fill-palette-color="quaternary" id="text-0"></path></svg></g></svg></g></svg></g></svg></g><g></g></svg></g></svg></g></svg></g></svg></g><defs></defs></svg><rect width="333.90454557049503" height="333.90454557049503" fill="none" stroke="none" visibility="hidden"></rect></g></svg></g></svg>