<svg xmlns="http://www.w3.org/2000/svg" version="1.1" xmlns:xlink="http://www.w3.org/1999/xlink" xmlns:svgjs="http://svgjs.dev/svgjs" width="2000" height="601" viewBox="0 0 2000 601"><g transform="matrix(1,0,0,1,-1.2121212121212466,-1.1749046886426413)"><svg viewBox="0 0 396 119" data-background-color="#ffffff" preserveAspectRatio="xMidYMid meet" height="601" width="2000" xmlns="http://www.w3.org/2000/svg" xmlns:xlink="http://www.w3.org/1999/xlink"><g id="tight-bounds" transform="matrix(1,0,0,1,0.2400000000000091,0.23263503818381537)"><svg viewBox="0 0 395.52 118.53472992363238" height="118.53472992363238" width="395.52"><g><svg viewBox="0 0 683.8449591263959 204.94381457242307" height="118.53472992363238" width="395.52"><g><rect width="13.373404269289255" height="149.03656558993137" x="239.94264315739662" y="27.953624491245847" fill="#ffffff" opacity="1" stroke-width="0" stroke="transparent" fill-opacity="1" class="rect-r$-0" data-fill-palette-color="primary" rx="1%" id="r$-0" data-palette-color="#ffffff"></rect></g><g transform="matrix(1,0,0,1,288.324959126396,28.324362216593926)"><svg viewBox="0 0 395.5199999999999 148.2950901392352" height="148.2950901392352" width="395.5199999999999"><g id="textblocktransform"><svg viewBox="0 0 395.5199999999999 148.2950901392352" height="148.2950901392352" width="395.5199999999999" id="textblock"><g><svg viewBox="0 0 395.5199999999999 148.2950901392352" height="148.2950901392352" width="395.5199999999999"><g transform="matrix(1,0,0,1,0,0)"><svg width="395.5199999999999" viewBox="2.38 -33.753663003663 91.22 34.213663003663" height="148.2950901392352" data-palette-color="#ffffff"><g class="wordmark-text-0" data-fill-palette-color="primary" id="text-0"><path d="M22.88-12.54L16.94-12.54 16.94-19.46 31.29-19.46 31.29-1.54Q25.48 0.46 18.45 0.46L18.45 0.46Q10.79 0.46 6.57-3.99L6.57-3.99Q2.38-8.44 2.38-16.61 2.38-24.77 6.95-29.26 11.53-33.75 19.84-33.75L19.84-33.75Q25.86-33.75 30.61-31.65L30.61-31.65 27.78-24.6Q24.22-26.37 20.08-26.37 15.95-26.37 13.8-23.81 11.65-21.26 11.65-16.54 11.65-11.83 13.6-9.38 15.55-6.93 19.21-6.93L19.21-6.93Q21.26-6.93 22.88-7.33L22.88-7.33 22.88-12.54ZM47.42-7.41L60.01-7.41 60.01 0 35.87 0 35.87-5.92 43.98-14.13Q47.52-17.85 48.56-19.14 49.59-20.42 50.02-21.39 50.45-22.35 50.45-23.51 50.45-24.67 49.61-25.43 48.76-26.19 47.24-26.19 45.73-26.19 44.15-25.33 42.57-24.47 40.44-22.62L40.44-22.62 35.49-28.41Q38.02-30.69 39.81-31.7L39.81-31.7Q43.48-33.75 48.25-33.75L48.25-33.75Q53.08-33.85 56.27-31.22 59.45-28.59 59.38-24.65L59.38-24.65Q59.38-20.88 57.35-17.75L57.35-17.75Q56.29-16.1 54.57-14.31 52.85-12.51 47.42-7.63L47.42-7.63 47.42-7.41ZM74.36-7.38L76.36-7.38Q80.43-7.38 82.35-9.74 84.27-12.11 84.27-16.85 84.27-21.59 82.46-23.8 80.66-26.01 76.97-26.01L76.97-26.01 74.36-26.01 74.36-7.38ZM93.6-17.34L93.6-17.34Q93.6-9.02 89.01-4.51 84.42 0 76.13 0L76.13 0 65.36 0 65.36-33.27 76.89-33.27Q84.88-33.27 89.24-29.17 93.6-25.08 93.6-17.34Z" fill="#ffffff" data-fill-palette-color="primary"></path></g></svg></g></svg></g></svg></g></svg></g><g><svg viewBox="0 0 204.93373145768652 204.94381457242307" height="204.94381457242307" width="204.93373145768652"><g><svg xmlns="http://www.w3.org/2000/svg" xmlns:xlink="http://www.w3.org/1999/xlink" version="1.1" x="0" y="0" viewBox="0.35833249999999595 0.3587183000000067 89.28326340000001 89.2876563" enable-background="new 0 0 90 90" xml:space="preserve" height="204.94381457242307" width="204.93373145768652" class="icon-icon-0" data-fill-palette-color="accent" id="icon-0"><polygon points="57.928,58.169 57.875,76.027 45.397,63.548 45.397,45.639 " fill="#ff4136" data-fill-palette-color="accent"></polygon><polygon points="76.027,57.875 58.475,57.927 45.826,45.279 63.432,45.279 " fill="#ff4136" data-fill-palette-color="accent"></polygon><polygon points="76.027,32.125 63.432,44.721 45.707,44.721 58.355,32.073 " fill="#ff4136" data-fill-palette-color="accent"></polygon><polygon points="44.838,45.59 44.838,63.314 32.125,76.027 32.074,58.355 " fill="#ff4136" data-fill-palette-color="accent"></polygon><polygon points="57.928,31.712 45.397,44.243 45.397,26.452 57.875,13.974 " fill="#ff4136" data-fill-palette-color="accent"></polygon><polygon points="44.838,26.687 44.838,44.291 32.074,31.526 32.125,13.974 " fill="#ff4136" data-fill-palette-color="accent"></polygon><polygon points="44.479,44.721 26.569,44.721 13.974,32.125 31.832,32.073 " fill="#ff4136" data-fill-palette-color="accent"></polygon><polygon points="44.36,45.279 31.712,57.927 13.974,57.875 26.569,45.279 " fill="#ff4136" data-fill-palette-color="accent"></polygon><rect x="58.48" y="58.48" width="18.049" height="18.049" fill="#ff4136" data-fill-palette-color="accent"></rect><polygon points="76.527,13.474 76.527,31.516 58.914,31.516 58.912,31.518 58.484,31.516 58.484,13.474 " fill="#ff4136" data-fill-palette-color="accent"></polygon><polygon points="31.518,30.971 31.516,31.516 13.474,31.516 13.474,13.474 31.516,13.474 31.516,30.968 " fill="#ff4136" data-fill-palette-color="accent"></polygon><rect x="13.471" y="58.48" width="18.05" height="18.049" fill="#ff4136" data-fill-palette-color="accent"></rect><rect x="67.864" y="35.981" transform="matrix(0.7071 -0.7071 0.7071 0.7071 -9.3022 67.5465)" width="18.042" height="18.042" fill="#ff4136" data-fill-palette-color="accent"></rect><rect x="35.979" y="4.094" transform="matrix(0.7071 -0.7071 0.7071 0.7071 3.9068 35.6621)" width="18.042" height="18.042" fill="#ff4136" data-fill-palette-color="accent"></rect><rect x="4.095" y="35.98" transform="matrix(0.7071 -0.7071 0.7071 0.7071 -27.9787 22.4536)" width="18.041" height="18.041" fill="#ff4136" data-fill-palette-color="accent"></rect><rect x="35.98" y="67.865" transform="matrix(0.7071 -0.7071 0.7071 0.7071 -41.1877 54.3437)" width="18.04" height="18.041" fill="#ff4136" data-fill-palette-color="accent"></rect></svg></g></svg></g></svg></g><defs></defs></svg><rect width="395.52" height="118.53472992363238" fill="none" stroke="none" visibility="hidden"></rect></g></svg></g></svg>